# xmcd
#
# Track frame offsets:
# 150
# 12129
# 23780
# 38861
# 52834
# 66891
# 81623
# 90122
# 102813
# 111386
# 120169
# 131665
# 143574
# 156743
# 167089
# 179827
# 190579
# 202549
# 216895
# 226945
# 239716
# 255591
# 264923
# 273802
# 291356
#
# Disc length: 4052 seconds
#
# Revision: 0
# Processed by: cddbd v1.5.2PL0 Copyright (c) Steve Scherf et al.
# Submitted via: plextools 2.35
#
DISCID=580fd219
DTITLE=Tennesee Ernie Ford - This Lusty Land
DYEAR=2006
DGENRE=Country
TTITLE0=Tennesee Ernie Ford - His Hands
TTITLE1=Tennesee Ernie Ford - Somebody Bigger Than You and I
TTITLE2=Tennesee Ernie Ford - I am a Pilgrim
TTITLE3=Tennesee Ernie Ford - There is a Beauty in Everything
TTITLE4=Tennesee Ernie Ford - Mule Train
TTITLE5=Tennesee Ernie Ford - The Cry of the Wild Goose
TTITLE6=Tennesee Ernie Ford - The Death Hug
TTITLE7=Tennesee Ernie Ford - The Ballad of Davy Crockett
TTITLE8=Tennesee Ernie Ford - A Sensible Varmint
TTITLE9=Tennesee Ernie Ford - Crockett's Opinion of a Thunderstorm
TTITLE10=Tennesee Ernie Ford - Farewell
TTITLE11=Tennesee Ernie Ford - Sixteen Tons
TTITLE12=Tennesee Ernie Ford - John Henry
TTITLE13=Tennesee Ernie Ford - Trouble in Mind
TTITLE14=Tennesee Ernie Ford - Dark as a Dungeon
TTITLE15=Tennesee Ernie Ford - False Hearted Girl
TTITLE16=Tennesee Ernie Ford - Chicken Road
TTITLE17=Tennesee Ernie Ford - Who Will Shoe Your Pretty Little Foot?
TTITLE18=Tennesee Ernie Ford - The Rovin' Gambler
TTITLE19=Tennesee Ernie Ford - In the Pines
TTITLE20=Tennesee Ernie Ford - I Gave My Love a Cherry
TTITLE21=Tennesee Ernie Ford - Nine Pound Hammer
TTITLE22=Tennesee Ernie Ford - Gaily the Troubadour
TTITLE23=Tennesee Ernie Ford - The Last Letter
TTITLE24=Tennesee Ernie Ford - That's All
EXTD=Jasmine Records Compilation
EXTT0=Hamblen
EXTT1=Lange, Heath, Burke
EXTT2=Travis
EXTT3=Thrasher
EXTT4=Glickman, Lange, Heath
EXTT5=Gilykson
EXTT6=Crockett
EXTT7=Blackburn, Bruns
EXTT8=Crockett
EXTT9=Crockett
EXTT10=Crockett, Bruns
EXTT11=Travis
EXTT12=Travis
EXTT13=Jones
EXTT14=Travis
EXTT15=Delmore, Delmore
EXTT16=Greene
EXTT17=Ford
EXTT18=Ford
EXTT19=Riggs
EXTT20=Ford
EXTT21=Travis
EXTT22=Ford
EXTT23=Griffin
EXTT24=Travis
PLAYORDER=
